<?xml version="1.0" standalone="no"?>
<!DOCTYPE svg PUBLIC "-//W3C//DTD SVG 20010904//EN"
 "http://www.w3.org/TR/2001/REC-SVG-20010904/DTD/svg10.dtd">
<svg version="1.0" xmlns="http://www.w3.org/2000/svg"
 width="512.000000pt" height="512.000000pt" viewBox="0 0 512.000000 512.000000"
 preserveAspectRatio="xMidYMid meet">
<metadata>
Created by potrace 1.11, written by Peter Selinger 2001-2013
</metadata>
<g transform="translate(0.000000,512.000000) scale(0.100000,-0.100000)"
fill="#000000" stroke="none">
<path d="M1310 4733 c-41 -7 -84 -15 -95 -17 -19 -3 -20 -12 -22 -267 -1 -145
0 -269 2 -276 3 -8 17 -6 52 7 98 37 262 53 387 36 71 -9 182 -44 251 -79 248
-124 409 -339 460 -610 14 -78 15 -246 0 -304 -3 -13 -7 -32 -10 -44 -29 -135
-117 -289 -225 -397 -156 -154 -356 -240 -570 -246 l-54 -2 -48 -64 c-57 -77
-138 -236 -173 -339 -30 -88 -30 -96 -7 -98 9 -1 46 -6 82 -12 78 -11 292 -12
352 -1 24 5 61 11 84 14 22 4 70 15 105 25 376 109 674 352 852 696 32 62 82
182 93 225 13 52 34 140 39 165 14 78 26 299 17 318 -2 5 -6 34 -7 65 -10 175
-96 417 -212 597 -149 231 -393 432 -638 525 -33 12 -69 26 -80 31 -19 8 -86
26 -130 35 -11 3 -42 10 -70 16 -76 16 -347 17 -435 1z"/>
<path d="M2907 3053 c-4 -7 -15 -45 -23 -78 -14 -61 -109 -254 -166 -338 -41
-60 -40 -62 16 -71 51 -9 160 -48 216 -79 90 -48 141 -87 209 -156 128 -132
205 -283 237 -471 6 -35 6 -198 0 -235 -35 -227 -150 -420 -336 -567 -38 -31
-203 -115 -235 -121 -11 -2 -27 -7 -35 -10 -66 -28 -267 -40 -355 -23 -16 4
-46 9 -65 12 -19 3 -64 17 -100 30 -291 110 -500 368 -546 674 -7 51 -8 225
-1 237 3 5 8 28 12 52 3 24 10 54 16 68 13 34 13 34 -28 26 -81 -16 -465 -5
-495 13 -5 3 -8 2 -9 -3 0 -4 -3 -19 -5 -33 -27 -143 -26 -352 2 -497 2 -13 6
-35 9 -50 3 -16 21 -74 40 -131 71 -209 168 -365 330 -528 196 -197 412 -315
686 -375 83 -18 136 -23 259 -24 207 0 294 12 451 65 208 69 371 172 534 335
220 219 340 461 391 785 15 92 7 366 -12 440 -2 8 -10 42 -18 75 -32 140 -106
302 -204 449 -42 63 -209 242 -272 291 -105 83 -274 175 -402 219 -82 28 -94
30 -101 19z"/>
</g>
</svg>
